M48
;DRILL file {KiCad (5.0.2)-1} date 28/02/2021 01:29:12
;FORMAT={-:-/ absolute / inch / decimal}
FMAT,2
INCH,TZ
T1C0.0157
T2C0.0295
T3C0.0300
T4C0.0315
T5C0.0354
T6C0.0394
T7C0.0433
T8C0.0512
T9C0.0591
T10C0.1378
%
G90
G05
T1
X2.75Y-5.22
X2.8717Y-4.3189
X3.09Y-5.12
X3.26Y-5.22
X3.67Y-3.74
X3.9118Y-3.91
X4.03Y-3.74
X4.17Y-4.52
X4.3646Y-5.2354
X4.555Y-4.82
X4.555Y-4.995
X4.59Y-4.26
X4.67Y-4.5
X4.73Y-4.74
X4.81Y-4.13
X5.9094Y-4.4006
X5.91Y-3.99
T2
X4.68Y-4.615
X4.73Y-4.615
X4.78Y-4.615
X4.67Y-4.205
X4.67Y-4.255
X4.67Y-4.305
T3
X3.485Y-3.0783
X3.485Y-3.1783
X3.485Y-3.2783
X3.485Y-3.3783
T4
X2.8717Y-4.3189
X2.8717Y-4.9189
X2.9717Y-4.3189
X2.9717Y-4.9189
X3.0717Y-4.3189
X3.0717Y-4.9189
X3.1717Y-4.3189
X3.1717Y-4.9189
X3.2717Y-4.3189
X3.2717Y-4.9189
X3.3717Y-4.3189
X3.3717Y-4.9189
X3.4717Y-4.3189
X3.4717Y-4.9189
X3.5717Y-4.3189
X3.5717Y-4.9189
X3.6717Y-4.3189
X3.6717Y-4.9189
X3.7717Y-4.3189
X3.7717Y-4.9189
X3.8717Y-4.3189
X3.8717Y-4.9189
X3.9717Y-4.3189
X3.9717Y-4.9189
X4.0717Y-4.3189
X4.0717Y-4.9189
X4.1717Y-4.3189
X4.1717Y-4.9189
X4.2717Y-4.3189
X4.2717Y-4.9189
X3.189Y-4.0157
X3.2874Y-4.0157
X4.7756Y-4.8937
X4.7756Y-5.1937
X3.9646Y-5.3858
X4.3646Y-5.3858
X4.0512Y-3.9449
X4.5512Y-3.9449
X3.9685Y-4.2087
X4.3685Y-4.2087
X3.5118Y-4.0236
X3.9118Y-4.0236
T5
X4.6575Y-5.4354
X4.6575Y-5.5354
X2.9882Y-5.4173
X3.0882Y-5.4173
X3.4213Y-5.3583
X3.4213Y-5.4882
X3.5197Y-5.3583
X3.5197Y-5.4882
X3.6181Y-5.3583
X3.6181Y-5.4882
T6
X4.98Y-4.17
X5.2792Y-4.17
X5.7231Y-3.9
X5.7231Y-4.4709
X5.8216Y-3.9
X5.92Y-3.9
X5.92Y-4.4709
T7
X2.7953Y-4.1772
X2.8953Y-4.1772
X2.9953Y-4.1772
T8
X5.8346Y-5.0984
X5.8346Y-5.2953
X5.0039Y-4.937
X5.0039Y-5.4173
X5.2402Y-4.8583
X5.4764Y-4.937
X5.4764Y-5.4173
T10
X2.7165Y-2.5197
X2.7165Y-5.7087
X5.9843Y-2.5197
X5.9843Y-5.7087
X3.51Y-2.8033
X3.51Y-3.6533
X5.86Y-2.8033
X5.86Y-3.6533
T6
X2.9724Y-3.0039G85X2.9724Y-3.0827
G05
X3.0512Y-3.2283G85X3.1299Y-3.2283
G05
X3.2087Y-3.0039G85X3.2087Y-3.0827
G05
T9
X5.6011Y-4.1697G85X5.6011Y-4.2209
G05
X6.042Y-4.1697G85X6.042Y-4.2209
G05
T0
M30
